# xmcd
#
# Track frame offsets: 
#        150
#        20473
#        35836
#        52451
#        66640
#        81132
#        100342
#        112196
#        129184
#        147687
#        171393
#        187959
#        202378
#
# Disc length: 2945 seconds
#
# Revision: 0
# Processed by: cddbd v1.5.2PL0 Copyright (c) Steve Scherf et al.
# Submitted via: ExactAudioCopy v0.99pb4
#
DISCID=d60b7f0d
DTITLE=Hollow Tip - Money and Bullets
DYEAR=2008
DGENRE=Gangsta Rap
TTITLE0=01 - Money-N-Bullets
TTITLE1=02 - Welcome To Da Game
TTITLE2=03 - Still A Boss Feat. Tykoon
TTITLE3=04 - Aw Yea
TTITLE4=05 - Money On Da Line Feat 80 West
TTITLE5=06 - Solid
TTITLE6=07 - In Da Traffic
TTITLE7=08 - Clean and Saucy Feat. Luni Coleone
TTITLE8=09 - Feelin So Fly Feat. Jahari
TTITLE9=10 - The Gutta Feat. Smigg Dirtee, I-Rocc, Mic-c
TTITLE10=11 - Big Shit Feat. Young Sav, Mic-C
TTITLE11=12 - My Princess Feat. Mr. Blap
TTITLE12=13 - Real Pain
EXTD=
EXTT0=
EXTT1=
EXTT2=
EXTT3=
EXTT4=
EXTT5=
EXTT6=
EXTT7=
EXTT8=
EXTT9=
EXTT10=
EXTT11=
EXTT12=
PLAYORDER=
